STARTFONT 2.1
FONT -Fondu-Helvetica-Medium-I-Normal--10-100-75-75-P-46-MacRoman-1
SIZE 10 75 75
FONTBOUNDINGBOX 13 10 -1 -2
COMMENT Created by Fondu from a mac NFNT/FONT resource
STARTPROPERTIES 17
FOUNDRY "Fondu"
FAMILY_NAME "Helvetica"
WEIGHT_NAME "Medium"
SLANT "I"
SETWIDTH_NAME "Normal"
ADD_STYLE_NAME ""
PIXEL_SIZE 10
POINT_SIZE 100
RESOLUTION_X 75
RESOLUTION_Y 75
SPACING "P"
AVERAGE_WIDTH 46
CHARSET_REGISTRY "MacRoman"
CHARSET_ENCODING "1"
FONT_ASCENT 8
FONT_DESCENT 2
FACE_NAME "HelveticaItalic"
ENDPROPERTIES
CHARS 191
STARTCHAR space
ENCODING 32
SWIDTH 240 0
DWIDTH 2 0
BBX 0 0 0 -2
BITMAP
ENDCHAR
STARTCHAR exclam
ENCODING 33
SWIDTH 360 0
DWIDTH 3 0
BBX 3 6 0 0
BITMAP
20
20
40
40
00
80
ENDCHAR
STARTCHAR quotedbl
ENCODING 34
SWIDTH 360 0
DWIDTH 3 0
BBX 3 2 1 4
BITMAP
A0
A0
ENDCHAR
STARTCHAR numbersign
ENCODING 35
SWIDTH 720 0
DWIDTH 6 0
BBX 6 6 0 0
BITMAP
28
7C
28
F8
50
50
ENDCHAR
STARTCHAR dollar
ENCODING 36
SWIDTH 600 0
DWIDTH 5 0
BBX 5 8 0 -1
BITMAP
10
30
48
60
30
90
60
40
ENDCHAR
STARTCHAR percent
ENCODING 37
SWIDTH 840 0
DWIDTH 7 0
BBX 6 6 1 0
BITMAP
64
A8
D0
2C
54
98
ENDCHAR
STARTCHAR ampersand
ENCODING 38
SWIDTH 720 0
DWIDTH 6 0
BBX 5 6 0 0
BITMAP
18
28
30
58
D0
68
ENDCHAR
STARTCHAR quotesingle
ENCODING 39
SWIDTH 240 0
DWIDTH 2 0
BBX 1 3 1 5
BITMAP
80
80
80
ENDCHAR
STARTCHAR parenleft
ENCODING 40
SWIDTH 360 0
DWIDTH 3 0
BBX 3 8 0 -1
BITMAP
20
40
40
80
80
80
40
40
ENDCHAR
STARTCHAR parenright
ENCODING 41
SWIDTH 360 0
DWIDTH 3 0
BBX 3 8 0 -1
BITMAP
40
20
20
20
20
40
40
80
ENDCHAR
STARTCHAR asterisk
ENCODING 42
SWIDTH 360 0
DWIDTH 3 0
BBX 3 3 1 4
BITMAP
40
E0
C0
ENDCHAR
STARTCHAR plus
ENCODING 43
SWIDTH 600 0
DWIDTH 5 0
BBX 4 5 0 0
BITMAP
20
20
F0
40
40
ENDCHAR
STARTCHAR comma
ENCODING 44
SWIDTH 240 0
DWIDTH 2 0
BBX 2 3 0 -2
BITMAP
40
40
80
ENDCHAR
STARTCHAR hyphen
ENCODING 45
SWIDTH 600 0
DWIDTH 5 0
BBX 3 1 1 2
BITMAP
E0
ENDCHAR
STARTCHAR period
ENCODING 46
SWIDTH 240 0
DWIDTH 2 0
BBX 1 1 0 0
BITMAP
80
ENDCHAR
STARTCHAR slash
ENCODING 47
SWIDTH 240 0
DWIDTH 2 0
BBX 2 6 0 0
BITMAP
40
40
40
80
80
80
ENDCHAR
STARTCHAR zero
ENCODING 48
SWIDTH 600 0
DWIDTH 5 0
BBX 5 6 0 0
BITMAP
30
48
88
88
90
60
ENDCHAR
STARTCHAR one
ENCODING 49
SWIDTH 600 0
DWIDTH 5 0
BBX 3 6 1 0
BITMAP
20
E0
20
40
40
40
ENDCHAR
STARTCHAR two
ENCODING 50
SWIDTH 600 0
DWIDTH 5 0
BBX 5 6 0 0
BITMAP
30
48
18
60
80
F0
ENDCHAR
STARTCHAR three
ENCODING 51
SWIDTH 600 0
DWIDTH 5 0
BBX 5 6 0 0
BITMAP
30
48
30
10
90
60
ENDCHAR
STARTCHAR four
ENCODING 52
SWIDTH 600 0
DWIDTH 5 0
BBX 5 6 0 0
BITMAP
10
30
50
F8
20
20
ENDCHAR
STARTCHAR five
ENCODING 53
SWIDTH 600 0
DWIDTH 5 0
BBX 5 6 0 0
BITMAP
78
40
70
10
90
60
ENDCHAR
STARTCHAR six
ENCODING 54
SWIDTH 600 0
DWIDTH 5 0
BBX 5 6 0 0
BITMAP
30
48
E0
90
90
60
ENDCHAR
STARTCHAR seven
ENCODING 55
SWIDTH 600 0
DWIDTH 5 0
BBX 4 6 1 0
BITMAP
F0
10
20
40
80
80
ENDCHAR
STARTCHAR eight
ENCODING 56
SWIDTH 600 0
DWIDTH 5 0
BBX 5 6 0 0
BITMAP
30
48
70
90
90
60
ENDCHAR
STARTCHAR nine
ENCODING 57
SWIDTH 600 0
DWIDTH 5 0
BBX 5 6 0 0
BITMAP
30
48
48
38
90
60
ENDCHAR
STARTCHAR colon
ENCODING 58
SWIDTH 240 0
DWIDTH 2 0
BBX 2 5 0 0
BITMAP
40
00
00
00
80
ENDCHAR
STARTCHAR semicolon
ENCODING 59
SWIDTH 240 0
DWIDTH 2 0
BBX 3 7 0 -1
BITMAP
20
00
00
00
40
40
80
ENDCHAR
STARTCHAR less
ENCODING 60
SWIDTH 600 0
DWIDTH 5 0
BBX 3 4 1 0
BITMAP
20
40
80
40
ENDCHAR
STARTCHAR equal
ENCODING 61
SWIDTH 720 0
DWIDTH 6 0
BBX 4 3 1 1
BITMAP
70
00
E0
ENDCHAR
STARTCHAR greater
ENCODING 62
SWIDTH 600 0
DWIDTH 5 0
BBX 3 4 1 0
BITMAP
40
20
40
80
ENDCHAR
STARTCHAR question
ENCODING 63
SWIDTH 600 0
DWIDTH 5 0
BBX 4 6 1 0
BITMAP
60
10
20
40
00
80
ENDCHAR
STARTCHAR at
ENCODING 64
SWIDTH 1080 0
DWIDTH 9 0
BBX 7 7 1 -1
BITMAP
7C
C2
BA
AA
BC
C0
70
ENDCHAR
STARTCHAR A
ENCODING 65
SWIDTH 840 0
DWIDTH 7 0
BBX 6 6 0 0
BITMAP
08
18
24
7C
44
84
ENDCHAR
STARTCHAR B
ENCODING 66
SWIDTH 720 0
DWIDTH 6 0
BBX 5 6 0 0
BITMAP
78
48
70
88
88
F0
ENDCHAR
STARTCHAR C
ENCODING 67
SWIDTH 720 0
DWIDTH 6 0
BBX 6 6 0 0
BITMAP
38
44
80
80
C8
70
ENDCHAR
STARTCHAR D
ENCODING 68
SWIDTH 720 0
DWIDTH 6 0
BBX 6 6 0 0
BITMAP
78
44
44
84
88
F0
ENDCHAR
STARTCHAR E
ENCODING 69
SWIDTH 720 0
DWIDTH 6 0
BBX 6 6 0 0
BITMAP
7C
40
78
80
80
F0
ENDCHAR
STARTCHAR F
ENCODING 70
SWIDTH 600 0
DWIDTH 5 0
BBX 6 6 0 0
BITMAP
7C
40
70
80
80
80
ENDCHAR
STARTCHAR G
ENCODING 71
SWIDTH 720 0
DWIDTH 6 0
BBX 6 6 0 0
BITMAP
38
44
40
9C
C8
70
ENDCHAR
STARTCHAR H
ENCODING 72
SWIDTH 720 0
DWIDTH 6 0
BBX 6 6 0 0
BITMAP
44
44
7C
88
88
88
ENDCHAR
STARTCHAR I
ENCODING 73
SWIDTH 240 0
DWIDTH 2 0
BBX 2 6 0 0
BITMAP
40
40
40
80
80
80
ENDCHAR
STARTCHAR J
ENCODING 74
SWIDTH 480 0
DWIDTH 4 0
BBX 4 6 0 0
BITMAP
10
10
10
A0
A0
40
ENDCHAR
STARTCHAR K
ENCODING 75
SWIDTH 720 0
DWIDTH 6 0
BBX 5 6 0 0
BITMAP
48
50
60
E0
90
88
ENDCHAR
STARTCHAR L
ENCODING 76
SWIDTH 480 0
DWIDTH 4 0
BBX 3 6 0 0
BITMAP
40
40
40
80
80
E0
ENDCHAR
STARTCHAR M
ENCODING 77
SWIDTH 840 0
DWIDTH 7 0
BBX 6 6 0 0
BITMAP
44
44
6C
AC
B4
94
ENDCHAR
STARTCHAR N
ENCODING 78
SWIDTH 720 0
DWIDTH 6 0
BBX 6 6 0 0
BITMAP
44
64
64
98
98
88
ENDCHAR
STARTCHAR O
ENCODING 79
SWIDTH 720 0
DWIDTH 6 0
BBX 6 6 0 0
BITMAP
38
4C
84
84
C8
70
ENDCHAR
STARTCHAR P
ENCODING 80
SWIDTH 720 0
DWIDTH 6 0
BBX 5 6 0 0
BITMAP
70
48
48
F0
80
80
ENDCHAR
STARTCHAR Q
ENCODING 81
SWIDTH 720 0
DWIDTH 6 0
BBX 6 7 0 -1
BITMAP
38
4C
84
94
D8
78
08
ENDCHAR
STARTCHAR R
ENCODING 82
SWIDTH 720 0
DWIDTH 6 0
BBX 5 6 0 0
BITMAP
70
48
48
F0
90
90
ENDCHAR
STARTCHAR S
ENCODING 83
SWIDTH 720 0
DWIDTH 6 0
BBX 6 6 0 0
BITMAP
38
44
70
18
88
70
ENDCHAR
STARTCHAR T
ENCODING 84
SWIDTH 480 0
DWIDTH 4 0
BBX 4 6 1 0
BITMAP
F0
40
40
80
80
80
ENDCHAR
STARTCHAR U
ENCODING 85
SWIDTH 720 0
DWIDTH 6 0
BBX 6 6 0 0
BITMAP
44
44
44
88
88
70
ENDCHAR
STARTCHAR V
ENCODING 86
SWIDTH 720 0
DWIDTH 6 0
BBX 5 6 1 0
BITMAP
88
90
90
A0
A0
40
ENDCHAR
STARTCHAR W
ENCODING 87
SWIDTH 960 0
DWIDTH 8 0
BBX 7 6 1 0
BITMAP
92
92
B4
54
48
48
ENDCHAR
STARTCHAR X
ENCODING 88
SWIDTH 720 0
DWIDTH 6 0
BBX 6 6 0 0
BITMAP
44
48
30
30
48
88
ENDCHAR
STARTCHAR Y
ENCODING 89
SWIDTH 720 0
DWIDTH 6 0
BBX 4 6 2 0
BITMAP
90
90
A0
C0
80
80
ENDCHAR
STARTCHAR Z
ENCODING 90
SWIDTH 720 0
DWIDTH 6 0
BBX 6 6 0 0
BITMAP
7C
08
10
20
40
F8
ENDCHAR
STARTCHAR bracketleft
ENCODING 91
SWIDTH 480 0
DWIDTH 4 0
BBX 4 8 0 -1
BITMAP
30
20
20
40
40
40
80
C0
ENDCHAR
STARTCHAR backslash
ENCODING 92
SWIDTH 240 0
DWIDTH 2 0
BBX 2 6 0 0
BITMAP
80
80
80
40
40
40
ENDCHAR
STARTCHAR bracketright
ENCODING 93
SWIDTH 480 0
DWIDTH 4 0
BBX 4 8 0 -1
BITMAP
30
10
10
20
20
20
40
C0
ENDCHAR
STARTCHAR asciicircum
ENCODING 94
SWIDTH 600 0
DWIDTH 5 0
BBX 3 3 1 3
BITMAP
20
60
A0
ENDCHAR
STARTCHAR underscore
ENCODING 95
SWIDTH 600 0
DWIDTH 5 0
BBX 5 1 0 0
BITMAP
F8
ENDCHAR
STARTCHAR grave
ENCODING 96
SWIDTH 360 0
DWIDTH 3 0
BBX 2 2 1 6
BITMAP
80
40
ENDCHAR
STARTCHAR a
ENCODING 97
SWIDTH 480 0
DWIDTH 4 0
BBX 4 5 0 0
BITMAP
60
10
70
A0
F0
ENDCHAR
STARTCHAR b
ENCODING 98
SWIDTH 480 0
DWIDTH 4 0
BBX 4 7 0 0
BITMAP
20
40
60
50
90
90
E0
ENDCHAR
STARTCHAR c
ENCODING 99
SWIDTH 480 0
DWIDTH 4 0
BBX 4 5 0 0
BITMAP
30
50
80
80
60
ENDCHAR
STARTCHAR d
ENCODING 100
SWIDTH 480 0
DWIDTH 4 0
BBX 5 7 0 0
BITMAP
08
08
30
50
90
A0
60
ENDCHAR
STARTCHAR e
ENCODING 101
SWIDTH 480 0
DWIDTH 4 0
BBX 4 5 0 0
BITMAP
30
50
E0
80
60
ENDCHAR
STARTCHAR f
ENCODING 102
SWIDTH 360 0
DWIDTH 3 0
BBX 4 7 1 0
BITMAP
30
40
E0
40
80
80
80
ENDCHAR
STARTCHAR g
ENCODING 103
SWIDTH 480 0
DWIDTH 4 0
BBX 5 7 0 -2
BITMAP
18
28
48
50
30
20
C0
ENDCHAR
STARTCHAR h
ENCODING 104
SWIDTH 600 0
DWIDTH 5 0
BBX 5 7 0 0
BITMAP
20
20
70
48
48
90
90
ENDCHAR
STARTCHAR i
ENCODING 105
SWIDTH 240 0
DWIDTH 2 0
BBX 2 7 0 0
BITMAP
40
00
40
40
40
80
80
ENDCHAR
STARTCHAR j
ENCODING 106
SWIDTH 480 0
DWIDTH 4 0
BBX 3 9 0 -2
BITMAP
20
00
20
20
20
40
40
40
80
ENDCHAR
STARTCHAR k
ENCODING 107
SWIDTH 480 0
DWIDTH 4 0
BBX 5 7 0 0
BITMAP
20
20
48
50
E0
90
90
ENDCHAR
STARTCHAR l
ENCODING 108
SWIDTH 240 0
DWIDTH 2 0
BBX 3 7 0 0
BITMAP
20
20
40
40
40
80
80
ENDCHAR
STARTCHAR m
ENCODING 109
SWIDTH 720 0
DWIDTH 6 0
BBX 6 5 0 0
BITMAP
6C
54
A8
A8
A8
ENDCHAR
STARTCHAR n
ENCODING 110
SWIDTH 600 0
DWIDTH 5 0
BBX 5 5 0 0
BITMAP
70
48
48
90
90
ENDCHAR
STARTCHAR o
ENCODING 111
SWIDTH 600 0
DWIDTH 5 0
BBX 5 5 0 0
BITMAP
30
48
88
90
60
ENDCHAR
STARTCHAR p
ENCODING 112
SWIDTH 600 0
DWIDTH 5 0
BBX 5 7 0 -2
BITMAP
30
28
48
50
60
80
80
ENDCHAR
STARTCHAR q
ENCODING 113
SWIDTH 480 0
DWIDTH 4 0
BBX 4 7 0 -2
BITMAP
30
50
90
A0
60
40
40
ENDCHAR
STARTCHAR r
ENCODING 114
SWIDTH 360 0
DWIDTH 3 0
BBX 4 5 0 0
BITMAP
50
60
C0
80
80
ENDCHAR
STARTCHAR s
ENCODING 115
SWIDTH 480 0
DWIDTH 4 0
BBX 4 5 0 0
BITMAP
30
40
60
20
C0
ENDCHAR
STARTCHAR t
ENCODING 116
SWIDTH 360 0
DWIDTH 3 0
BBX 4 6 0 0
BITMAP
20
F0
40
40
80
60
ENDCHAR
STARTCHAR u
ENCODING 117
SWIDTH 480 0
DWIDTH 4 0
BBX 4 5 0 0
BITMAP
50
50
90
A0
60
ENDCHAR
STARTCHAR v
ENCODING 118
SWIDTH 600 0
DWIDTH 5 0
BBX 4 5 1 0
BITMAP
90
90
A0
40
40
ENDCHAR
STARTCHAR w
ENCODING 119
SWIDTH 720 0
DWIDTH 6 0
BBX 5 5 1 0
BITMAP
A8
A8
A8
F0
90
ENDCHAR
STARTCHAR x
ENCODING 120
SWIDTH 600 0
DWIDTH 5 0
BBX 5 5 0 0
BITMAP
48
50
20
50
90
ENDCHAR
STARTCHAR y
ENCODING 121
SWIDTH 480 0
DWIDTH 4 0
BBX 4 6 0 -1
BITMAP
90
90
60
40
40
80
ENDCHAR
STARTCHAR z
ENCODING 122
SWIDTH 480 0
DWIDTH 4 0
BBX 4 5 0 0
BITMAP
70
10
20
40
E0
ENDCHAR
STARTCHAR braceleft
ENCODING 123
SWIDTH 360 0
DWIDTH 3 0
BBX 3 8 0 -1
BITMAP
20
40
40
C0
40
80
80
40
ENDCHAR
STARTCHAR bar
ENCODING 124
SWIDTH 240 0
DWIDTH 2 0
BBX 2 7 0 0
BITMAP
40
40
40
80
80
80
80
ENDCHAR
STARTCHAR braceright
ENCODING 125
SWIDTH 360 0
DWIDTH 3 0
BBX 4 8 0 0
BITMAP
40
20
20
30
20
40
40
80
ENDCHAR
STARTCHAR asciitilde
ENCODING 126
SWIDTH 720 0
DWIDTH 6 0
BBX 5 2 1 2
BITMAP
68
B0
ENDCHAR
STARTCHAR dagger
ENCODING 160
SWIDTH 240 0
DWIDTH 2 0
BBX 0 0 0 -2
BITMAP
ENDCHAR
STARTCHAR degree
ENCODING 161
SWIDTH 360 0
DWIDTH 3 0
BBX 3 7 0 -2
BITMAP
20
00
40
40
40
80
80
ENDCHAR
STARTCHAR cent
ENCODING 162
SWIDTH 720 0
DWIDTH 6 0
BBX 4 6 2 0
BITMAP
20
60
90
80
E0
40
ENDCHAR
STARTCHAR sterling
ENCODING 163
SWIDTH 600 0
DWIDTH 5 0
BBX 5 6 0 0
BITMAP
30
48
E0
40
50
A0
ENDCHAR
STARTCHAR section
ENCODING 164
SWIDTH 600 0
DWIDTH 5 0
BBX 5 5 0 1
BITMAP
48
30
50
60
90
ENDCHAR
STARTCHAR bullet
ENCODING 165
SWIDTH 600 0
DWIDTH 5 0
BBX 5 6 0 0
BITMAP
48
F8
50
F8
60
40
ENDCHAR
STARTCHAR paragraph
ENCODING 166
SWIDTH 240 0
DWIDTH 2 0
BBX 2 7 0 -1
BITMAP
40
40
40
00
80
80
80
ENDCHAR
STARTCHAR germandbls
ENCODING 167
SWIDTH 600 0
DWIDTH 5 0
BBX 5 8 0 -2
BITMAP
18
20
70
50
70
20
20
C0
ENDCHAR
STARTCHAR registered
ENCODING 168
SWIDTH 240 0
DWIDTH 2 0
BBX 3 1 1 5
BITMAP
A0
ENDCHAR
STARTCHAR copyright
ENCODING 169
SWIDTH 960 0
DWIDTH 8 0
BBX 6 7 1 0
BITMAP
30
48
B4
A4
B4
48
30
ENDCHAR
STARTCHAR trademark
ENCODING 170
SWIDTH 480 0
DWIDTH 4 0
BBX 4 5 0 2
BITMAP
60
30
60
00
E0
ENDCHAR
STARTCHAR acute
ENCODING 171
SWIDTH 720 0
DWIDTH 6 0
BBX 4 3 1 1
BITMAP
50
A0
A0
ENDCHAR
STARTCHAR dieresis
ENCODING 172
SWIDTH 720 0
DWIDTH 6 0
BBX 4 2 1 2
BITMAP
F0
10
ENDCHAR
STARTCHAR notequal
ENCODING 173
SWIDTH 600 0
DWIDTH 5 0
BBX 3 1 1 2
BITMAP
E0
ENDCHAR
STARTCHAR AE
ENCODING 174
SWIDTH 960 0
DWIDTH 8 0
BBX 6 7 1 0
BITMAP
30
48
B4
B4
AC
48
30
ENDCHAR
STARTCHAR Oslash
ENCODING 175
SWIDTH 240 0
DWIDTH 2 0
BBX 3 1 1 5
BITMAP
E0
ENDCHAR
STARTCHAR infinity
ENCODING 176
SWIDTH 360 0
DWIDTH 3 0
BBX 3 3 1 3
BITMAP
60
A0
C0
ENDCHAR
STARTCHAR plusminus
ENCODING 177
SWIDTH 600 0
DWIDTH 5 0
BBX 4 6 0 0
BITMAP
20
20
70
20
00
E0
ENDCHAR
STARTCHAR lessequal
ENCODING 178
SWIDTH 240 0
DWIDTH 2 0
BBX 3 4 0 2
BITMAP
60
A0
40
E0
ENDCHAR
STARTCHAR greaterequal
ENCODING 179
SWIDTH 240 0
DWIDTH 2 0
BBX 3 4 0 2
BITMAP
E0
40
20
C0
ENDCHAR
STARTCHAR yen
ENCODING 180
SWIDTH 240 0
DWIDTH 2 0
BBX 2 2 1 5
BITMAP
40
80
ENDCHAR
STARTCHAR mu
ENCODING 181
SWIDTH 480 0
DWIDTH 4 0
BBX 4 7 0 -2
BITMAP
50
50
90
A0
E0
80
80
ENDCHAR
STARTCHAR partialdiff
ENCODING 182
SWIDTH 600 0
DWIDTH 5 0
BBX 5 8 0 -2
BITMAP
78
C8
D0
D0
50
A0
A0
A0
ENDCHAR
STARTCHAR summation
ENCODING 183
SWIDTH 240 0
DWIDTH 2 0
BBX 1 2 1 2
BITMAP
80
80
ENDCHAR
STARTCHAR product
ENCODING 184
SWIDTH 240 0
DWIDTH 2 0
BBX 2 2 -1 -1
BITMAP
40
C0
ENDCHAR
STARTCHAR pi
ENCODING 185
SWIDTH 240 0
DWIDTH 2 0
BBX 3 4 0 2
BITMAP
20
E0
40
40
ENDCHAR
STARTCHAR integral
ENCODING 186
SWIDTH 480 0
DWIDTH 4 0
BBX 4 5 0 2
BITMAP
30
50
60
00
E0
ENDCHAR
STARTCHAR ordfeminine
ENCODING 187
SWIDTH 720 0
DWIDTH 6 0
BBX 4 3 1 1
BITMAP
50
50
A0
ENDCHAR
STARTCHAR ordmasculine
ENCODING 188
SWIDTH 840 0
DWIDTH 7 0
BBX 7 7 0 -1
BITMAP
22
E4
48
54
2C
5E
08
ENDCHAR
STARTCHAR Omega
ENCODING 189
SWIDTH 840 0
DWIDTH 7 0
BBX 7 7 0 -1
BITMAP
22
E4
48
56
2A
44
0E
ENDCHAR
STARTCHAR ae
ENCODING 190
SWIDTH 840 0
DWIDTH 7 0
BBX 7 7 0 -1
BITMAP
E2
44
28
D4
2C
5E
08
ENDCHAR
STARTCHAR oslash
ENCODING 191
SWIDTH 600 0
DWIDTH 5 0
BBX 4 7 0 -2
BITMAP
10
00
20
40
80
80
60
ENDCHAR
STARTCHAR questiondown
ENCODING 192
SWIDTH 720 0
DWIDTH 6 0
BBX 6 8 -1 0
BITMAP
08
00
08
18
24
7C
44
84
ENDCHAR
STARTCHAR exclamdown
ENCODING 193
SWIDTH 720 0
DWIDTH 6 0
BBX 6 8 -1 0
BITMAP
08
00
08
18
24
7C
44
84
ENDCHAR
STARTCHAR logicalnot
ENCODING 194
SWIDTH 720 0
DWIDTH 6 0
BBX 6 8 -1 0
BITMAP
14
00
08
18
24
7C
44
84
ENDCHAR
STARTCHAR radical
ENCODING 195
SWIDTH 720 0
DWIDTH 6 0
BBX 7 8 -1 0
BITMAP
14
00
08
18
24
7C
44
84
ENDCHAR
STARTCHAR florin
ENCODING 196
SWIDTH 720 0
DWIDTH 6 0
BBX 6 8 -1 0
BITMAP
14
00
08
18
24
7C
44
84
ENDCHAR
STARTCHAR approxequal
ENCODING 197
SWIDTH 720 0
DWIDTH 6 0
BBX 6 8 -1 0
BITMAP
14
08
08
18
24
7C
44
84
ENDCHAR
STARTCHAR Delta
ENCODING 198
SWIDTH 960 0
DWIDTH 8 0
BBX 8 6 0 0
BITMAP
1F
28
2E
70
90
9E
ENDCHAR
STARTCHAR guillemotleft
ENCODING 199
SWIDTH 720 0
DWIDTH 6 0
BBX 6 8 0 -2
BITMAP
38
44
40
80
88
70
20
60
ENDCHAR
STARTCHAR guillemotright
ENCODING 200
SWIDTH 720 0
DWIDTH 6 0
BBX 6 8 0 0
BITMAP
10
00
7C
40
78
80
80
F0
ENDCHAR
STARTCHAR ellipsis
ENCODING 201
SWIDTH 720 0
DWIDTH 6 0
BBX 6 8 0 0
BITMAP
10
00
7C
40
78
80
80
F0
ENDCHAR
STARTCHAR nbspace
ENCODING 202
SWIDTH 720 0
DWIDTH 6 0
BBX 6 8 0 0
BITMAP
28
00
7C
40
78
80
80
F0
ENDCHAR
STARTCHAR Agrave
ENCODING 203
SWIDTH 720 0
DWIDTH 6 0
BBX 6 8 0 0
BITMAP
28
00
7C
40
78
80
80
F0
ENDCHAR
STARTCHAR Atilde
ENCODING 204
SWIDTH 240 0
DWIDTH 2 0
BBX 2 8 0 0
BITMAP
40
00
40
40
40
80
80
80
ENDCHAR
STARTCHAR Otilde
ENCODING 205
SWIDTH 240 0
DWIDTH 2 0
BBX 3 8 0 0
BITMAP
40
00
40
40
40
80
80
80
ENDCHAR
STARTCHAR OE
ENCODING 206
SWIDTH 240 0
DWIDTH 2 0
BBX 3 8 0 0
BITMAP
A0
00
40
40
40
80
80
80
ENDCHAR
STARTCHAR oe
ENCODING 207
SWIDTH 240 0
DWIDTH 2 0
BBX 3 8 0 0
BITMAP
A0
00
40
40
40
80
80
80
ENDCHAR
STARTCHAR endash
ENCODING 208
SWIDTH 720 0
DWIDTH 6 0
BBX 6 6 0 0
BITMAP
78
44
64
84
88
F0
ENDCHAR
STARTCHAR emdash
ENCODING 209
SWIDTH 720 0
DWIDTH 6 0
BBX 6 8 0 0
BITMAP
28
00
44
64
64
98
98
88
ENDCHAR
STARTCHAR quotedblleft
ENCODING 210
SWIDTH 720 0
DWIDTH 6 0
BBX 6 8 0 0
BITMAP
10
00
38
4C
84
84
C8
70
ENDCHAR
STARTCHAR quotedblright
ENCODING 211
SWIDTH 720 0
DWIDTH 6 0
BBX 6 8 0 0
BITMAP
10
00
38
4C
84
84
C8
70
ENDCHAR
STARTCHAR quoteleft
ENCODING 212
SWIDTH 720 0
DWIDTH 6 0
BBX 6 8 0 0
BITMAP
28
00
38
4C
84
84
C8
70
ENDCHAR
STARTCHAR quoteright
ENCODING 213
SWIDTH 720 0
DWIDTH 6 0
BBX 6 8 0 0
BITMAP
28
00
38
4C
84
84
C8
70
ENDCHAR
STARTCHAR divide
ENCODING 214
SWIDTH 720 0
DWIDTH 6 0
BBX 6 8 0 0
BITMAP
28
00
38
4C
84
84
C8
70
ENDCHAR
STARTCHAR lozenge
ENCODING 215
SWIDTH 600 0
DWIDTH 5 0
BBX 5 4 0 1
BITMAP
48
30
60
90
ENDCHAR
STARTCHAR ydieresis
ENCODING 216
SWIDTH 720 0
DWIDTH 6 0
BBX 6 6 0 0
BITMAP
3C
4C
94
A4
C8
F0
ENDCHAR
STARTCHAR Ydieresis
ENCODING 217
SWIDTH 720 0
DWIDTH 6 0
BBX 6 8 0 0
BITMAP
10
00
44
44
44
88
88
70
ENDCHAR
STARTCHAR fraction
ENCODING 218
SWIDTH 720 0
DWIDTH 6 0
BBX 6 8 0 0
BITMAP
10
00
44
44
44
88
88
70
ENDCHAR
STARTCHAR currency
ENCODING 219
SWIDTH 720 0
DWIDTH 6 0
BBX 6 8 0 0
BITMAP
28
00
44
44
44
88
88
70
ENDCHAR
STARTCHAR guilsinglleft
ENCODING 220
SWIDTH 720 0
DWIDTH 6 0
BBX 6 8 0 0
BITMAP
28
00
44
44
44
88
88
70
ENDCHAR
STARTCHAR guilsinglright
ENCODING 221
SWIDTH 720 0
DWIDTH 6 0
BBX 4 8 2 0
BITMAP
20
00
90
90
A0
C0
80
80
ENDCHAR
STARTCHAR fi
ENCODING 222
SWIDTH 720 0
DWIDTH 6 0
BBX 5 6 0 0
BITMAP
40
70
48
48
F0
80
ENDCHAR
STARTCHAR fl
ENCODING 223
SWIDTH 600 0
DWIDTH 5 0
BBX 5 6 0 0
BITMAP
30
48
70
90
90
A0
ENDCHAR
STARTCHAR daggerdbl
ENCODING 224
SWIDTH 480 0
DWIDTH 4 0
BBX 4 8 0 0
BITMAP
40
20
00
60
10
70
A0
F0
ENDCHAR
STARTCHAR periodcentered
ENCODING 225
SWIDTH 480 0
DWIDTH 4 0
BBX 4 8 0 0
BITMAP
10
20
00
60
10
70
A0
F0
ENDCHAR
STARTCHAR quotesinglbase
ENCODING 226
SWIDTH 480 0
DWIDTH 4 0
BBX 4 8 0 0
BITMAP
20
50
00
60
10
70
A0
F0
ENDCHAR
STARTCHAR quotedblbase
ENCODING 227
SWIDTH 480 0
DWIDTH 4 0
BBX 5 8 0 0
BITMAP
28
50
00
60
10
70
A0
F0
ENDCHAR
STARTCHAR perthousand
ENCODING 228
SWIDTH 480 0
DWIDTH 4 0
BBX 4 7 0 0
BITMAP
50
00
60
10
F0
A0
F0
ENDCHAR
STARTCHAR Acircumflex
ENCODING 229
SWIDTH 480 0
DWIDTH 4 0
BBX 4 8 0 0
BITMAP
20
50
00
60
10
70
A0
F0
ENDCHAR
STARTCHAR Ecircumflex
ENCODING 230
SWIDTH 720 0
DWIDTH 6 0
BBX 6 5 0 0
BITMAP
6C
14
78
A0
F8
ENDCHAR
STARTCHAR Aacute
ENCODING 231
SWIDTH 480 0
DWIDTH 4 0
BBX 4 7 0 -2
BITMAP
30
50
80
A0
C0
40
C0
ENDCHAR
STARTCHAR Edieresis
ENCODING 232
SWIDTH 480 0
DWIDTH 4 0
BBX 4 8 0 0
BITMAP
20
10
00
30
50
E0
80
60
ENDCHAR
STARTCHAR Egrave
ENCODING 233
SWIDTH 480 0
DWIDTH 4 0
BBX 5 8 0 0
BITMAP
08
10
00
30
50
E0
80
60
ENDCHAR
STARTCHAR Iacute
ENCODING 234
SWIDTH 480 0
DWIDTH 4 0
BBX 5 8 0 0
BITMAP
10
28
00
30
50
E0
80
60
ENDCHAR
STARTCHAR Icircumflex
ENCODING 235
SWIDTH 480 0
DWIDTH 4 0
BBX 5 7 0 0
BITMAP
28
00
30
50
E0
80
60
ENDCHAR
STARTCHAR Idieresis
ENCODING 236
SWIDTH 240 0
DWIDTH 2 0
BBX 2 8 0 0
BITMAP
80
40
00
40
40
40
80
80
ENDCHAR
STARTCHAR Igrave
ENCODING 237
SWIDTH 240 0
DWIDTH 2 0
BBX 3 8 0 0
BITMAP
20
40
00
40
40
40
80
80
ENDCHAR
STARTCHAR Oacute
ENCODING 238
SWIDTH 240 0
DWIDTH 2 0
BBX 3 8 0 0
BITMAP
40
A0
00
40
40
40
80
80
ENDCHAR
STARTCHAR Ocircumflex
ENCODING 239
SWIDTH 240 0
DWIDTH 2 0
BBX 3 7 0 0
BITMAP
A0
00
40
40
40
80
80
ENDCHAR
STARTCHAR apple
ENCODING 240
SWIDTH 600 0
DWIDTH 5 0
BBX 5 7 0 0
BITMAP
D0
60
B0
48
88
90
60
ENDCHAR
STARTCHAR Ograve
ENCODING 241
SWIDTH 600 0
DWIDTH 5 0
BBX 6 8 0 0
BITMAP
14
28
00
70
48
48
90
90
ENDCHAR
STARTCHAR Uacute
ENCODING 242
SWIDTH 600 0
DWIDTH 5 0
BBX 5 8 0 0
BITMAP
20
10
00
30
48
88
90
60
ENDCHAR
STARTCHAR Ucircumflex
ENCODING 243
SWIDTH 600 0
DWIDTH 5 0
BBX 6 8 0 0
BITMAP
04
08
00
30
48
88
90
60
ENDCHAR
STARTCHAR Ugrave
ENCODING 244
SWIDTH 600 0
DWIDTH 5 0
BBX 5 8 0 0
BITMAP
10
28
00
30
48
88
90
60
ENDCHAR
STARTCHAR dotlessi
ENCODING 245
SWIDTH 600 0
DWIDTH 5 0
BBX 5 8 0 0
BITMAP
28
50
00
30
48
D8
90
60
ENDCHAR
STARTCHAR circumflex
ENCODING 246
SWIDTH 600 0
DWIDTH 5 0
BBX 5 7 0 0
BITMAP
28
00
30
48
D8
90
60
ENDCHAR
STARTCHAR tilde
ENCODING 247
SWIDTH 600 0
DWIDTH 5 0
BBX 4 5 1 0
BITMAP
20
00
F0
00
40
ENDCHAR
STARTCHAR macron
ENCODING 248
SWIDTH 600 0
DWIDTH 5 0
BBX 5 7 0 -1
BITMAP
08
38
48
88
90
E0
80
ENDCHAR
STARTCHAR breve
ENCODING 249
SWIDTH 480 0
DWIDTH 4 0
BBX 4 8 0 0
BITMAP
40
20
00
50
50
90
A0
60
ENDCHAR
STARTCHAR dotaccent
ENCODING 250
SWIDTH 480 0
DWIDTH 4 0
BBX 4 8 0 0
BITMAP
10
20
00
50
50
90
A0
60
ENDCHAR
STARTCHAR ring
ENCODING 251
SWIDTH 480 0
DWIDTH 4 0
BBX 4 8 0 0
BITMAP
20
50
00
50
50
90
A0
60
ENDCHAR
STARTCHAR cedilla
ENCODING 252
SWIDTH 480 0
DWIDTH 4 0
BBX 4 7 0 0
BITMAP
50
00
50
50
90
A0
60
ENDCHAR
STARTCHAR hungarumlaut
ENCODING 253
SWIDTH 480 0
DWIDTH 4 0
BBX 4 9 0 -1
BITMAP
10
20
00
90
90
60
40
40
80
ENDCHAR
STARTCHAR ogonek
ENCODING 254
SWIDTH 480 0
DWIDTH 4 0
BBX 5 8 -1 -2
BITMAP
20
30
28
48
50
60
80
C0
ENDCHAR
STARTCHAR caron
ENCODING 255
SWIDTH 480 0
DWIDTH 4 0
BBX 4 8 -1 -1
BITMAP
50
00
90
90
60
40
40
80
ENDCHAR
ENDFONT
